<svg width="75" height="75" viewBox="0 0 75 75" fill="none" xmlns="http://www.w3.org/2000/svg">
<path fill-rule="evenodd" clip-rule="evenodd" d="M0 37.5C0 16.7893 16.7893 0 37.5 0C58.2108 0 75 16.7893 75 37.5C75 58.2108 58.2108 75 37.5 75C16.7893 75 0 58.2108 0 37.5ZM8.62871 41.6667C10.6505 55.8012 22.8064 66.6667 37.5 66.6667C52.1937 66.6667 64.3496 55.8012 66.3712 41.6667H49.2887C47.5725 46.5217 42.9425 50 37.5 50C32.0575 50 27.4271 46.5217 25.7112 41.6667H8.62871ZM66.3712 33.3333C64.3496 19.1988 52.1937 8.33333 37.5 8.33333C22.8064 8.33333 10.6505 19.1988 8.62871 33.3333H25.7112C27.4271 28.4784 32.0575 25 37.5 25C42.9425 25 47.5725 28.4784 49.2887 33.3333H66.3712ZM37.5 41.6667C39.8012 41.6667 41.6667 39.8012 41.6667 37.5C41.6667 35.1987 39.8012 33.3333 37.5 33.3333C35.1987 33.3333 33.3333 35.1987 33.3333 37.5C33.3333 39.8012 35.1987 41.6667 37.5 41.6667Z" fill="#161A33"/>
</svg>
